<svg width="144" height="33" viewBox="0 0 144 33" fill="none" xmlns="http://www.w3.org/2000/svg">
<g clip-path="url(#clip0_1_116)">
<g clip-path="url(#clip1_1_116)">
<g clip-path="url(#clip2_1_116)">
<mask id="mask0_1_116" style="mask-type:luminance" maskUnits="userSpaceOnUse" x="2" y="0" width="140" height="32">
<path d="M141.622 0.188965H2.37839V31.3241H141.622V0.188965Z" fill="white"/>
</mask>
<g mask="url(#mask0_1_116)">
<path d="M19.5787 11.5356C19.5787 5.26901 24.768 0.188965 31.1692 0.188965H34.1828V19.9775C34.1828 26.2441 28.9935 31.3241 22.5923 31.3241H19.5787V11.5356Z" fill="#FFCF33"/>
<path d="M2.37839 9.90164C2.37839 16.1683 7.56761 21.2483 13.9689 21.2483H16.9823V11.5356C16.9823 5.26902 11.7931 0.188965 5.39191 0.188965H2.37839V9.90164Z" fill="#FFCF33"/>
<path d="M16.9822 21.1656L2.46643 0.188965H5.39179C11.793 0.188965 16.9822 5.26902 16.9822 11.5356V21.1656Z" fill="#FFD755"/>
<path d="M56.9688 17.0273C63.37 17.0273 68.5592 22.1074 68.5592 28.3739V31.3241H48.3455C41.9443 31.3241 36.755 26.244 36.755 19.9774V17.0273H56.9688Z" fill="#4FA58C"/>
<path d="M64.323 31.3241L54.4297 17.0273H56.9686C63.3699 17.0273 68.5591 22.1074 68.5591 28.3739V31.3241H64.323Z" fill="#6CB49F"/>
<path d="M56.9688 14.4857C63.37 14.4857 68.5592 9.40565 68.5592 3.13909V0.188965H48.3455C41.9443 0.188965 36.755 5.26902 36.755 11.5356V14.4857H56.9688Z" fill="#4FA58C"/>
<path d="M52.671 14.4857L43.4959 1.22689C44.9713 0.56062 46.614 0.188965 48.3454 0.188965H68.5591V3.13909C68.5591 9.40565 63.37 14.4857 56.9687 14.4857H52.671Z" fill="#6CB49F"/>
<path d="M121.738 17.0386V31.3241H118.167V30.1059C117.47 30.918 116.425 31.3241 115.031 31.3241C114.058 31.3241 113.17 31.105 112.368 30.6667C111.566 30.2155 110.928 29.5773 110.455 28.7523C109.994 27.9272 109.764 26.9733 109.764 25.8905C109.764 24.8076 109.994 23.86 110.455 23.0479C110.928 22.2228 111.566 21.5912 112.368 21.1529C113.17 20.7146 114.058 20.4954 115.031 20.4954C116.307 20.4954 117.293 20.8563 117.99 21.5783V19.2821C117.99 18.043 119.016 17.0386 120.282 17.0386H121.738ZM115.82 28.4042C116.464 28.4042 116.997 28.185 117.418 27.7468C117.839 27.2956 118.049 26.6768 118.049 25.8905C118.049 25.1169 117.839 24.5111 117.418 24.0728C117.01 23.6345 116.477 23.4153 115.82 23.4153C115.163 23.4153 114.623 23.6345 114.203 24.0728C113.782 24.5111 113.571 25.1169 113.571 25.8905C113.571 26.6768 113.782 27.2956 114.203 27.7468C114.623 28.185 115.163 28.4042 115.82 28.4042Z" fill="white"/>
<path d="M105.896 21.93C106.282 21.4442 106.781 21.0832 107.394 20.8468C108.019 20.5974 108.732 20.4727 109.531 20.4727V23.8404C109.184 23.801 108.898 23.7813 108.672 23.7813C107.86 23.7813 107.221 23.9979 106.755 24.4311C106.302 24.8644 106.076 25.5275 106.076 26.4203V31.3241H102.281V20.4727H105.896V21.93Z" fill="white"/>
<path fill-rule="evenodd" clip-rule="evenodd" d="M91.7302 30.6165C92.4964 31.0883 93.3648 31.3241 94.3334 31.3241C95.0417 31.3241 95.6861 31.1883 96.2647 30.9167C96.6383 30.7412 96.9635 30.5239 97.2402 30.265V31.3241H100.831V20.4727H97.2402V21.5526C96.9548 21.2823 96.6218 21.0582 96.2422 20.8801C95.6783 20.6084 95.0417 20.4727 94.3334 20.4727C93.3648 20.4727 92.4964 20.7085 91.7302 21.1804C90.9777 21.6522 90.3775 22.2955 89.9295 23.1105C89.4954 23.9254 89.2791 24.8547 89.2791 25.8984C89.2791 26.9421 89.4954 27.8714 89.9295 28.6864C90.3775 29.5012 90.9777 30.1446 91.7302 30.6165ZM96.7196 27.6784C96.2863 28.1359 95.7146 28.3646 95.0063 28.3646C94.5574 28.3646 94.1527 28.2574 93.7911 28.043C93.4296 27.8285 93.1477 27.5354 92.9453 27.1637C92.7429 26.792 92.6417 26.3702 92.6417 25.8984C92.6417 25.4123 92.7429 24.9834 92.9453 24.6116C93.1624 24.2399 93.4443 23.954 93.7911 23.7539C94.1527 23.5394 94.5652 23.4321 95.0279 23.4321C95.4906 23.4321 95.8954 23.5394 96.2422 23.7539C96.6046 23.954 96.8787 24.2399 97.0673 24.6116C97.2696 24.9834 97.3708 25.4123 97.3708 25.8984C97.3708 26.6133 97.1537 27.2066 96.7196 27.6784Z" fill="white"/>
<path d="M83.2453 31.3241C81.7753 31.3241 80.4524 31.0233 79.2765 30.4215C78.1138 29.8066 77.1984 28.9562 76.5303 27.8705C75.8621 26.7847 75.528 25.555 75.528 24.1813C75.528 22.8077 75.8621 21.578 76.5303 20.4922C77.1984 19.4064 78.1138 18.5626 79.2765 17.9609C80.4524 17.346 81.7753 17.0386 83.2453 17.0386C84.5282 17.0386 85.6841 17.2609 86.713 17.7057C87.7419 18.1505 88.5976 18.7916 89.2791 19.6288L86.7531 21.8658C85.8444 20.7931 84.742 20.2567 83.4457 20.2567C82.684 20.2567 82.0025 20.4203 81.4012 20.7473C80.8132 21.0744 80.3522 21.5388 80.0181 22.1406C79.6974 22.7292 79.537 23.4095 79.537 24.1813C79.537 24.9532 79.6974 25.64 80.0181 26.2418C80.3522 26.8305 80.8132 27.2883 81.4012 27.6154C82.0025 27.9424 82.684 28.1059 83.4457 28.1059C84.742 28.1059 85.8444 27.5696 86.7531 26.4968L89.2791 28.7339C88.5976 29.5712 87.7419 30.2121 86.713 30.6569C85.6841 31.1017 84.5282 31.3241 83.2453 31.3241Z" fill="white"/>
<path fill-rule="evenodd" clip-rule="evenodd" d="M137.974 14.4289L141.622 3.48926H138.249L136.234 9.68158L134.272 3.48584H131.081L129.066 9.6245L127.122 3.48926H123.509L127.157 14.4289H130.75L132.599 8.93036L134.378 14.4289H137.974Z" fill="white"/>
<path d="M117.645 14.4747C116.453 14.4747 115.377 14.233 114.417 13.7495C113.458 13.2661 112.705 12.5947 112.157 11.7353C111.622 10.8759 111.355 9.90234 111.355 8.8146C111.355 7.74035 111.622 6.7735 112.157 5.91408C112.705 5.05466 113.451 4.38996 114.397 3.91996C115.357 3.43654 116.439 3.19482 117.645 3.19482C118.851 3.19482 119.934 3.43654 120.893 3.91996C121.853 4.38996 122.6 5.05466 123.134 5.91408C123.669 6.76007 123.936 7.72691 123.936 8.8146C123.936 9.90234 123.669 10.8759 123.134 11.7353C122.6 12.5947 121.853 13.2661 120.893 13.7495C119.934 14.233 118.851 14.4747 117.645 14.4747ZM117.645 11.4331C118.331 11.4331 118.892 11.2049 119.331 10.7483C119.77 10.2783 119.989 9.63371 119.989 8.8146C119.989 8.00891 119.77 7.37778 119.331 6.92121C118.892 6.46464 118.331 6.23636 117.645 6.23636C116.96 6.23636 116.398 6.46464 115.959 6.92121C115.521 7.37778 115.302 8.00891 115.302 8.8146C115.302 9.63371 115.521 10.2783 115.959 10.7483C116.398 11.2049 116.96 11.4331 117.645 11.4331Z" fill="white"/>
<path d="M100.634 0.188965H102.248C103.514 0.188965 104.54 1.19344 104.54 2.43253V14.4745H100.634V0.188965Z" fill="white"/>
<path d="M106.35 0.188965H107.965C109.23 0.188965 110.256 1.19344 110.256 2.43253V14.4745H106.35V0.188965Z" fill="white"/>
<path d="M99.5676 8.8549C99.5676 8.8818 99.5468 9.1973 99.5062 9.80158H91.4058C91.5702 10.3656 91.8858 10.8021 92.352 11.1109C92.8311 11.4063 93.4279 11.5541 94.1405 11.5541C94.675 11.5541 95.1334 11.4802 95.5174 11.3325C95.9152 11.1848 96.3122 10.943 96.71 10.6073L98.7658 12.7022C97.683 13.8838 96.1003 14.4747 94.0169 14.4747C92.7152 14.4747 91.5702 14.233 90.5833 13.7495C89.5965 13.2661 88.8294 12.5947 88.2812 11.7353C87.7467 10.8759 87.4794 9.90234 87.4794 8.8146C87.4794 7.74035 87.7398 6.78022 88.2606 5.93422C88.7948 5.07481 89.5282 4.40339 90.4605 3.91996C91.392 3.43654 92.4411 3.19482 93.606 3.19482C94.7157 3.19482 95.7232 3.42311 96.6279 3.87968C97.5325 4.32282 98.2452 4.97409 98.7658 5.83351C99.3003 6.6795 99.5676 7.68663 99.5676 8.8549ZM93.6259 5.91408C93.0231 5.91408 92.5163 6.08193 92.1046 6.41765C91.7077 6.75335 91.4543 7.20992 91.3444 7.78734H95.9083C95.7985 7.20992 95.5382 6.75335 95.1273 6.41765C94.7295 6.08193 94.2296 5.91408 93.6259 5.91408Z" fill="white"/>
<path d="M83.7778 9.23303V14.4651H79.7074V9.17257L74.2185 0.188965H77.6386C78.1821 0.188965 78.6856 0.468835 78.9641 0.925781L81.9276 5.78861L84.8913 0.925783C85.1697 0.468837 85.6732 0.188965 86.2167 0.188965H89.2878L83.7778 9.23303Z" fill="white"/>
</g>
</g>
</g>
</g>
<defs>
<clipPath id="clip0_1_116">
<rect width="144" height="32" fill="white" transform="translate(0 0.160156)"/>
</clipPath>
<clipPath id="clip1_1_116">
<rect width="144" height="32" fill="white" transform="translate(0 0.160156)"/>
</clipPath>
<clipPath id="clip2_1_116">
<rect width="140.108" height="32" fill="white" transform="translate(1.94595 0.160156)"/>
</clipPath>
</defs>
</svg>
