<svg width="140" height="39" viewBox="0 0 140 39" fill="none" xmlns="http://www.w3.org/2000/svg">
<g clip-path="url(#clip0_1_163)">
<g clip-path="url(#clip1_1_163)">
<g clip-path="url(#clip2_1_163)">
<mask id="mask0_1_163" style="mask-type:luminance" maskUnits="userSpaceOnUse" x="0" y="0" width="140" height="32">
<path d="M139.981 0.0200043H0.0186157V31.99H139.981V0.0200043Z" fill="white"/>
</mask>
<g mask="url(#mask0_1_163)">
<path d="M17.3226 11.673C17.3226 5.23845 22.5389 0.0221634 28.9735 0.0221634H32.0027V20.3413C32.0027 26.7759 26.7865 31.9922 20.3518 31.9922H17.3226V11.673Z" fill="#FFCF33"/>
<path d="M0.0325928 9.9953C0.0325928 16.4299 5.24888 21.6462 11.6835 21.6462H14.7127V11.673C14.7127 5.23845 9.49642 0.0221634 3.06182 0.0221634H0.0325928V9.9953Z" fill="#FFCF33"/>
<path d="M14.7126 21.5613L0.121094 0.0221634H3.0617C9.49631 0.0221634 14.7126 5.23845 14.7126 11.673V21.5613Z" fill="#FFD755"/>
<path d="M54.9073 17.3121C61.3422 17.3121 66.5585 22.5283 66.5585 28.9629V31.9922H46.2393C39.8047 31.9922 34.5884 26.7759 34.5884 20.3413V17.3121H54.9073Z" fill="#4FA58C"/>
<path d="M62.3 31.9921L52.3554 17.312H54.9074C61.3418 17.312 66.5581 22.5283 66.5581 28.9629V31.9921H62.3Z" fill="#6CB49F"/>
<path d="M54.9073 14.7023C61.3422 14.7023 66.5585 9.48599 66.5585 3.05141V0.0221863H46.2393C39.8047 0.0221863 34.5884 5.23845 34.5884 11.6731V14.7023H54.9073Z" fill="#492B7C"/>
<path d="M50.5872 14.7023L41.3644 1.08794C42.8475 0.403807 44.4988 0.0221863 46.2392 0.0221863H66.5585V3.05141C66.5585 9.48599 61.3422 14.7023 54.9073 14.7023H50.5872Z" fill="#674E92"/>
<path d="M120 17.3214V31.99H116.411V30.7391C115.711 31.573 114.66 31.99 113.259 31.99C112.28 31.99 111.388 31.765 110.582 31.3149C109.775 30.8516 109.134 30.1964 108.658 29.3492C108.196 28.5021 107.964 27.5225 107.964 26.4106C107.964 25.2987 108.196 24.3258 108.658 23.4919C109.134 22.6447 109.775 21.9961 110.582 21.5461C111.388 21.096 112.28 20.871 113.259 20.871C114.541 20.871 115.532 21.2416 116.233 21.9829V19.6251C116.233 18.3528 117.264 17.3214 118.537 17.3214H120ZM114.052 28.9918C114.699 28.9918 115.235 28.7668 115.658 28.3167C116.081 27.8535 116.292 27.2181 116.292 26.4106C116.292 25.6164 116.081 24.9943 115.658 24.5442C115.248 24.0942 114.712 23.8691 114.052 23.8691C113.391 23.8691 112.849 24.0942 112.426 24.5442C112.003 24.9943 111.791 25.6164 111.791 26.4106C111.791 27.2181 112.003 27.8535 112.426 28.3167C112.849 28.7668 113.391 28.9918 114.052 28.9918Z" fill="black"/>
<path d="M104.076 22.344C104.464 21.8452 104.966 21.4744 105.581 21.2317C106.21 20.9756 106.926 20.8475 107.729 20.8475V24.3055C107.381 24.2651 107.094 24.2448 106.866 24.2448C106.049 24.2448 105.407 24.4673 104.939 24.9122C104.484 25.3571 104.256 26.0379 104.256 26.9546V31.99H100.442V20.8475H104.076V22.344Z" fill="black"/>
<path fill-rule="evenodd" clip-rule="evenodd" d="M89.836 31.2633C90.6066 31.7478 91.4792 31.99 92.4528 31.99C93.1656 31.99 93.8125 31.8506 94.3941 31.5716C94.7697 31.3914 95.0965 31.1684 95.3753 30.9025V31.99H98.9846V20.8475H95.3753V21.9565C95.0875 21.679 94.7533 21.4488 94.372 21.2659C93.805 20.987 93.1656 20.8475 92.4528 20.8475C91.4792 20.8475 90.6066 21.0897 89.836 21.5742C89.08 22.0587 88.4768 22.7193 88.0264 23.5561C87.5901 24.3929 87.3719 25.3471 87.3719 26.4188C87.3719 27.4904 87.5901 28.4447 88.0264 29.2814C88.4768 30.1183 89.08 30.7789 89.836 31.2633ZM94.852 28.2465C94.4157 28.7163 93.8416 28.9512 93.1289 28.9512C92.6785 28.9512 92.2713 28.8411 91.9079 28.6208C91.5445 28.4006 91.261 28.0997 91.0574 27.718C90.8539 27.3363 90.7523 26.9032 90.7523 26.4188C90.7523 25.9196 90.8539 25.4792 91.0574 25.0975C91.2756 24.7158 91.5591 24.4222 91.9079 24.2167C92.2713 23.9965 92.6856 23.8864 93.151 23.8864C93.616 23.8864 94.0231 23.9965 94.372 24.2167C94.7354 24.4222 95.0118 24.7158 95.2008 25.0975C95.4044 25.4792 95.506 25.9196 95.506 26.4188C95.506 27.1528 95.2878 27.762 94.852 28.2465Z" fill="black"/>
<path d="M81.307 31.99C79.8294 31.99 78.4998 31.6811 77.3174 31.0632C76.1491 30.4318 75.2285 29.5587 74.5571 28.4437C73.8853 27.3288 73.5496 26.0661 73.5496 24.6557C73.5496 23.2453 73.8853 21.9826 74.5571 20.8677C75.2285 19.7527 76.1491 18.8863 77.3174 18.2684C78.4998 17.6371 79.8294 17.3214 81.307 17.3214C82.5967 17.3214 83.7584 17.5498 84.7927 18.0065C85.827 18.4632 86.6869 19.1214 87.3719 19.9811L84.8332 22.2781C83.9197 21.1766 82.8115 20.6259 81.5087 20.6259C80.7429 20.6259 80.0579 20.7938 79.4533 21.1296C78.8623 21.4654 78.3987 21.9423 78.063 22.5602C77.7405 23.1647 77.5793 23.8632 77.5793 24.6557C77.5793 25.4482 77.7405 26.1535 78.063 26.7714C78.3987 27.3758 78.8623 27.846 79.4533 28.1818C80.0579 28.5176 80.7429 28.6855 81.5087 28.6855C82.8115 28.6855 83.9197 28.1348 84.8332 27.0333L87.3719 29.3303C86.6869 30.19 85.827 30.8482 84.7927 31.3049C83.7584 31.7617 82.5967 31.99 81.307 31.99Z" fill="black"/>
<path fill-rule="evenodd" clip-rule="evenodd" d="M136.321 14.6416L139.988 3.40857H136.597L134.572 9.7669L132.6 3.40506H129.392L127.367 9.70827L125.413 3.40857H121.781L125.447 14.6416H129.06L130.918 8.99553L132.707 14.6416H136.321Z" fill="black"/>
<path d="M115.886 14.6886C114.688 14.6886 113.606 14.4404 112.642 13.944C111.678 13.4476 110.92 12.7582 110.369 11.8758C109.831 10.9933 109.563 9.99361 109.563 8.87673C109.563 7.77367 109.831 6.78091 110.369 5.89844C110.92 5.01598 111.671 4.33344 112.621 3.85084C113.585 3.35446 114.674 3.10626 115.886 3.10626C117.099 3.10626 118.187 3.35446 119.152 3.85084C120.116 4.33344 120.867 5.01598 121.404 5.89844C121.941 6.76709 122.21 7.7599 122.21 8.87673C122.21 9.99361 121.941 10.9933 121.404 11.8758C120.867 12.7582 120.116 13.4476 119.152 13.944C118.187 14.4404 117.099 14.6886 115.886 14.6886ZM115.886 11.5655C116.575 11.5655 117.14 11.3311 117.581 10.8623C118.022 10.3797 118.242 9.71782 118.242 8.87673C118.242 8.04941 118.022 7.40136 117.581 6.93258C117.14 6.46375 116.575 6.22933 115.886 6.22933C115.198 6.22933 114.632 6.46375 114.192 6.93258C113.751 7.40136 113.53 8.04941 113.53 8.87673C113.53 9.71782 113.751 10.3797 114.192 10.8623C114.632 11.3311 115.198 11.5655 115.886 11.5655Z" fill="black"/>
<path d="M98.7862 0.0200043H100.409C101.681 0.0200043 102.713 1.05141 102.713 2.32372V14.6886H98.7862V0.0200043Z" fill="black"/>
<path d="M104.532 0.0200043H106.155C107.428 0.0200043 108.459 1.05141 108.459 2.32372V14.6886H104.532V0.0200043Z" fill="black"/>
<path d="M97.7142 8.9181C97.7142 8.9457 97.6936 9.26973 97.6522 9.89018H89.5102C89.6757 10.4693 89.9925 10.9174 90.4608 11.2346C90.9432 11.5379 91.5426 11.6896 92.2587 11.6896C92.796 11.6896 93.2577 11.6137 93.6432 11.4621C94.0429 11.3104 94.4425 11.0622 94.8421 10.7175L96.9084 12.8685C95.82 14.0819 94.229 14.6886 92.135 14.6886C90.8261 14.6886 89.6757 14.4404 88.6837 13.944C87.6916 13.4476 86.9201 12.7582 86.3691 11.8758C85.8317 10.9933 85.5633 9.99361 85.5633 8.87673C85.5633 7.77367 85.8252 6.78777 86.3484 5.91913C86.8858 5.03666 87.623 4.34722 88.5595 3.85084C89.4965 3.35446 90.5506 3.10626 91.7217 3.10626C92.8374 3.10626 93.8501 3.34067 94.7594 3.80948C95.6686 4.2645 96.3851 4.93323 96.9084 5.8157C97.4458 6.68439 97.7142 7.71852 97.7142 8.9181ZM91.742 5.89844C91.1359 5.89844 90.6263 6.0708 90.213 6.41551C89.8134 6.76022 89.5586 7.22901 89.4486 7.82191H94.0358C93.9258 7.22901 93.6639 6.76022 93.2507 6.41551C92.851 6.0708 92.3485 5.89844 91.742 5.89844Z" fill="black"/>
<path d="M81.8426 9.30654V14.6789H77.7509V9.24448L72.2332 0.0200043H75.6714C76.2177 0.0200043 76.7236 0.307379 77.0038 0.776579L79.9826 5.76981L82.9615 0.776579C83.2417 0.307381 83.7476 0.0200043 84.2939 0.0200043H87.3809L81.8426 9.30654Z" fill="black"/>
</g>
</g>
</g>
</g>
<defs>
<clipPath id="clip0_1_163">
<rect width="140" height="31.97" fill="white" transform="translate(0 0.0200043)"/>
</clipPath>
<clipPath id="clip1_1_163">
<rect width="140" height="31.97" fill="white" transform="translate(0 0.0200043)"/>
</clipPath>
<clipPath id="clip2_1_163">
<rect width="139.963" height="31.97" fill="white" transform="translate(0.0186157 0.0200043)"/>
</clipPath>
</defs>
</svg>
